<svg width="56" height="56" viewBox="0 0 56 56" fill="none" xmlns="http://www.w3.org/2000/svg">
<rect width="56" height="56" rx="11" fill="white" fill-opacity="0.2"/>
<path d="M28.5 10C18.2834 10 10 18.1857 10 28.2818C10 36.8484 15.9693 44.0164 24.0168 46C23.9305 45.7532 23.875 45.4668 23.875 45.1118V41.9871C23.1242 41.9871 21.8662 41.9871 21.5502 41.9871C20.2845 41.9871 19.159 41.4493 18.6133 40.4499C18.0074 39.3393 17.9026 37.6406 16.401 36.6016C15.9555 36.2558 16.2946 35.8612 16.808 35.9145C17.7561 36.1796 18.5424 36.8225 19.2824 37.7762C20.0193 38.7314 20.3662 38.9478 21.7429 38.9478C22.4104 38.9478 23.4094 38.9097 24.3498 38.7634C24.8555 37.4944 25.7296 36.3259 26.798 35.7744C20.6375 35.1482 17.6975 32.1195 17.6975 28.0076C17.6975 26.2373 18.4607 24.5249 19.7572 23.0822C19.3317 21.6501 18.7968 18.7296 19.9206 17.6174C22.6925 17.6174 24.3683 19.3938 24.7707 19.8737C26.152 19.406 27.669 19.1409 29.2631 19.1409C30.8603 19.1409 32.3835 19.406 33.7679 19.8768C34.1656 19.3999 35.843 17.6174 38.621 17.6174C39.7495 18.7311 39.2084 21.6638 38.7783 23.0928C40.0671 24.5325 40.8256 26.2404 40.8256 28.0076C40.8256 32.1165 37.8903 35.1436 31.739 35.7728C33.4318 36.6458 34.6667 39.0986 34.6667 40.9466V45.1118C34.6667 45.2703 34.6312 45.3845 34.6127 45.5201C41.8215 43.0231 47 36.2588 47 28.2818C47 18.1857 38.7166 10 28.5 10Z" fill="white" fill-opacity="0.8"/>
</svg>
