<svg width="56" height="56" viewBox="0 0 56 56" fill="none" xmlns="http://www.w3.org/2000/svg">
<rect width="56" height="56" rx="11" fill="white" fill-opacity="0.2"/>
<path d="M14.4038 13.8131L16.423 39.6448C16.4533 40.0327 16.7159 40.3635 17.0868 40.4811L27.7117 43.8497C27.8996 43.9092 28.1013 43.9092 28.2892 43.8497L38.9142 40.4811C39.2851 40.3635 39.5476 40.0327 39.578 39.6448L41.5971 13.8131C41.6406 13.2577 41.2016 12.7832 40.6446 12.7832H15.3564C14.7994 12.7832 14.3605 13.2577 14.4038 13.8131ZM36.4191 21.8278H23.2598L23.6569 25.49H36.1329L35.3168 35.9304L28.0005 38.25L20.6843 35.9304L20.2579 30.4759H24.098V33.1514L28.1031 34.2263L32.0843 33.1514L32.3932 28.8874H20.1337L19.3198 18.4744H36.6812L36.4191 21.8278Z" fill="white" fill-opacity="0.8"/>
</svg>
