<svg width="56" height="56" viewBox="0 0 56 56" fill="none" xmlns="http://www.w3.org/2000/svg">
<rect width="56" height="56" rx="11" fill="white" fill-opacity="0.2"/>
<path fill-rule="evenodd" clip-rule="evenodd" d="M12.4453 20.7822C12.4453 16.364 16.027 12.7822 20.4453 12.7822H35.5564C39.9747 12.7822 43.5564 16.3639 43.5564 20.7822V35.8933C43.5564 40.3116 39.9747 43.8933 35.5564 43.8933H20.4453C16.027 43.8933 12.4453 40.3116 12.4453 35.8933V20.7822ZM37.5094 28.7356C36.9524 27.1317 34.6687 27.1317 34.2232 28.459C33.7776 29.7864 35.2815 30.5606 37.6209 31.335C39.9602 32.1093 41.4084 34.1557 41.1299 35.9807C40.8514 37.8058 40.0716 40.184 35.4486 40.184C32.5593 40.184 30.9535 38.3908 30.1555 37.046L32.775 35.483C32.775 35.483 33.6662 37.3634 35.3372 37.3634C37.0082 37.3634 37.6765 36.8104 37.6765 35.5383C37.6765 34.8386 36.5734 34.3421 35.2869 33.7632C33.7264 33.0609 31.8961 32.2372 31.4382 30.782C30.6027 28.1272 31.7167 24.3664 35.6156 24.6429C38.0525 24.8157 39.4232 26.0039 40.1086 26.8708L37.5094 28.7356ZM25.4286 35.6305V24.9869H28.601V36.6283C28.601 38.4022 26.5974 40.5088 23.0911 40.287C19.5848 40.0652 19.0283 37.5153 19.0283 37.5153L21.5884 35.7968C21.5884 35.7968 22.0893 37.1272 23.2024 37.3489C24.3155 37.5707 25.4286 36.9054 25.4286 35.6305Z" fill="white" fill-opacity="0.8"/>
</svg>
