<svg width="56" height="56" viewBox="0 0 56 56" fill="none" xmlns="http://www.w3.org/2000/svg">
<rect width="56" height="56" rx="11" fill="white" fill-opacity="0.2"/>
<path d="M14.1441 19.705C11.3141 23.775 11.6641 29.069 13.8281 33.405C13.8781 33.509 13.9331 33.611 13.9861 33.713L14.0861 33.908C14.1061 33.946 14.1281 33.983 14.1491 34.02C14.1861 34.09 14.2241 34.154 14.2621 34.222L14.4691 34.576L14.5871 34.77L14.8271 35.145L14.9291 35.303C15.0421 35.471 15.1571 35.639 15.2761 35.803L15.3441 35.895C15.4471 36.0367 15.5525 36.1767 15.6601 36.315L15.7801 36.467L16.0721 36.827L16.1841 36.961C16.3171 37.118 16.4541 37.274 16.5911 37.426C16.6051 37.441 16.6111 37.446 16.6151 37.452C16.7509 37.5993 16.8889 37.7447 17.0291 37.888L17.1621 38.022L17.4921 38.346L17.6271 38.476C17.7756 38.616 17.9266 38.7534 18.0801 38.888L18.5761 39.308L18.7461 39.444L19.0891 39.712L19.2721 39.852L19.6571 40.128L19.8371 40.255C19.9601 40.34 20.0851 40.421 20.2111 40.502L20.3731 40.61C20.5661 40.7325 20.7611 40.8519 20.9581 40.968L21.1201 41.068L21.5601 41.314C21.6401 41.357 21.7221 41.398 21.8031 41.439L22.1171 41.602L22.1901 41.637L22.3201 41.699L22.8181 41.929L22.9231 41.976C23.1153 42.0597 23.309 42.1401 23.5041 42.217L23.6441 42.273L24.1921 42.476L24.2621 42.5C24.4644 42.5696 24.6677 42.6363 24.8721 42.7L25.0201 42.744C25.2201 42.807 25.4361 42.884 25.6501 42.922C39.3441 45.419 43.3201 34.692 43.3201 34.692C39.9801 39.044 34.0501 40.192 28.4201 38.914C28.2071 38.866 28.0001 38.8 27.7931 38.738L27.6371 38.691C27.4346 38.6287 27.2333 38.5631 27.0331 38.494L26.9501 38.464C26.7718 38.4007 26.5945 38.335 26.4181 38.267L26.2681 38.207C26.0748 38.1309 25.8831 38.0509 25.6931 37.967L25.5781 37.917L25.0931 37.691L24.9531 37.624C24.8271 37.564 24.7031 37.497 24.5781 37.424L24.3281 37.294C24.1761 37.214 24.0281 37.128 23.8781 37.042L23.7261 36.957C23.5292 36.8407 23.3342 36.7214 23.1411 36.599C23.0881 36.565 23.0361 36.529 22.9831 36.494L22.5671 36.217C22.5211 36.187 22.4671 36.153 22.4331 36.123L22.0391 35.838L21.8641 35.706L21.5091 35.428L21.3511 35.301L20.9091 34.928C20.893 34.9139 20.8763 34.9006 20.8591 34.888L20.3941 34.465L20.2641 34.339L19.9321 34.009L19.8021 33.879C19.6621 33.736 19.5261 33.592 19.4021 33.445C19.3951 33.438 19.3881 33.431 19.3821 33.423C19.2405 33.2676 19.1018 33.1095 18.9661 32.949L18.8661 32.819L18.5661 32.449L18.4661 32.312L18.1201 31.852C14.9821 27.6 13.8601 21.722 16.3541 16.902M22.9341 16.277C20.8861 19.224 20.9971 23.177 22.5941 26.285C22.8617 26.8088 23.1643 27.3139 23.5001 27.797C23.8071 28.237 24.1471 28.76 24.5541 29.113C24.7021 29.276 24.8561 29.433 25.0141 29.59L25.1341 29.71C25.2869 29.859 25.4433 30.0044 25.6031 30.146C25.6101 30.151 25.6151 30.158 25.6231 30.163C25.8051 30.323 25.9891 30.463 26.1761 30.621L26.3001 30.718C26.4877 30.8627 26.6791 31.0024 26.8741 31.137L26.8911 31.149C26.9771 31.209 27.0651 31.264 27.1531 31.322C27.1951 31.349 27.2351 31.378 27.2771 31.404C27.4168 31.4937 27.5585 31.5803 27.7021 31.664L27.7621 31.699L28.1381 31.899C28.1821 31.924 28.2381 31.945 28.2721 31.969L28.5351 32.105C28.5481 32.112 28.5621 32.117 28.5751 32.123C28.7554 32.2128 28.9382 32.2978 29.1231 32.378L29.2431 32.428C29.392 32.4912 29.542 32.5519 29.6931 32.61L29.8851 32.68C30.022 32.7297 30.1597 32.7774 30.2981 32.823L30.4851 32.883C30.6821 32.943 30.8851 33.023 31.0821 33.056C41.6551 34.808 44.0961 26.656 44.0961 26.656C41.8961 29.826 37.6361 31.336 33.0881 30.156C32.887 30.1031 32.6873 30.0454 32.4891 29.983C32.4291 29.965 32.3691 29.945 32.3091 29.925L31.8891 29.781L31.6891 29.711C31.5381 29.6527 31.3881 29.592 31.2391 29.529L31.1171 29.479C30.931 29.3981 30.747 29.3127 30.5651 29.223L30.2881 29.083L30.1281 29.001C30.0104 28.9371 29.8937 28.8714 29.7781 28.804L29.6941 28.757C29.551 28.6732 29.4096 28.5865 29.2701 28.497C29.2271 28.47 29.1851 28.44 29.1421 28.412L28.8671 28.23C28.6734 28.0957 28.4833 27.9564 28.2971 27.812L28.1671 27.712C26.1671 26.14 24.5991 23.992 23.8491 21.558C23.0631 19.033 23.2321 16.198 24.5941 13.898M30.3261 13.715C29.1201 15.5 29.0001 17.698 29.8381 19.66C30.7211 21.743 32.5311 23.376 34.6441 24.16L34.9061 24.26L35.0221 24.296L35.3991 24.396C41.2371 25.524 42.8191 21.4 43.2421 20.793C41.8551 22.79 39.5241 23.269 36.6641 22.575C36.4381 22.52 36.1901 22.438 35.9721 22.361C35.6923 22.2618 35.4179 22.148 35.1501 22.02C34.6417 21.7755 34.159 21.4811 33.7091 21.141C31.1501 19.2 29.5601 15.486 31.2301 12.47" fill="white" fill-opacity="0.8"/>
</svg>
