<svg width="56" height="56" viewBox="0 0 56 56" fill="none" xmlns="http://www.w3.org/2000/svg">
<rect width="56" height="56" rx="11" fill="white" fill-opacity="0.2"/>
<path d="M26.8211 10.0097C26.7437 10.0167 26.4974 10.0414 26.2757 10.0589C21.1625 10.5199 16.373 13.2784 13.3396 17.5183C11.6504 19.8757 10.5701 22.5498 10.1619 25.3822C10.0176 26.3709 10 26.663 10 28.0035C10 29.3441 10.0176 29.6361 10.1619 30.6248C11.1402 37.384 15.9507 43.0629 22.4751 45.167C23.6434 45.5435 24.8751 45.8003 26.2757 45.9551C26.8211 46.015 29.1789 46.015 29.7243 45.9551C32.1419 45.6877 34.19 45.0896 36.21 44.0586C36.5196 43.9003 36.5795 43.8581 36.5372 43.8229C36.5091 43.8018 35.1894 42.032 33.6059 39.8927L30.7273 36.0047L27.1202 30.6671C25.1355 27.7326 23.5026 25.3329 23.4886 25.3329C23.4745 25.3294 23.4604 27.7009 23.4534 30.5967C23.4428 35.6669 23.4393 35.871 23.376 35.9906C23.2845 36.163 23.2141 36.2334 23.0663 36.3108C22.9537 36.3671 22.8551 36.3777 22.3238 36.3777H21.715L21.5531 36.2756C21.4475 36.2088 21.3701 36.1208 21.3173 36.0188L21.2434 35.8604L21.2504 28.8058L21.261 21.7476L21.3701 21.6103C21.4264 21.5364 21.546 21.4414 21.6305 21.3957C21.7748 21.3253 21.8311 21.3183 22.4399 21.3183C23.1578 21.3183 23.2774 21.3464 23.4639 21.5505C23.5167 21.6068 25.4698 24.5483 27.8065 28.0915C30.1431 31.6347 33.3384 36.4727 34.9079 38.8477L37.7584 43.1649L37.9026 43.0699C39.1801 42.2396 40.5314 41.0573 41.6012 39.8258C43.878 37.2116 45.3455 34.0238 45.8381 30.6248C45.9824 29.6361 46 29.3441 46 28.0035C46 26.663 45.9824 26.3709 45.8381 25.3822C44.8598 18.6231 40.0493 12.9442 33.5249 10.8401C32.3742 10.4671 31.1496 10.2102 29.7771 10.0554C29.4393 10.0202 27.1132 9.98154 26.8211 10.0097ZM34.19 20.8961C34.3589 20.9805 34.4962 21.1424 34.5455 21.3113C34.5736 21.4027 34.5806 23.359 34.5736 27.7678L34.563 34.0941L33.4475 32.3841L32.3284 30.6741V26.0754C32.3284 23.1022 32.3425 21.4309 32.3636 21.35C32.4199 21.1529 32.5431 20.9981 32.712 20.9066C32.8563 20.8327 32.9091 20.8257 33.4616 20.8257C33.9824 20.8257 34.0739 20.8327 34.19 20.8961Z" fill="white" fill-opacity="0.8"/>
</svg>
