<svg width="56" height="56" viewBox="0 0 56 56" fill="none" xmlns="http://www.w3.org/2000/svg">
<rect width="56" height="56" rx="11" fill="white" fill-opacity="0.2"/>
<path fill-rule="evenodd" clip-rule="evenodd" d="M22.0261 15.0386C21.3642 15.0917 20.8963 15.3267 20.4377 15.8364C19.9554 16.3722 19.6633 17.1075 19.5001 18.1964C19.4022 18.8495 19.4029 20.2051 19.5016 21.0591C19.5628 21.5889 19.6857 22.357 19.7962 22.8999L19.8358 23.0945L19.2899 23.2912C18.5623 23.5534 18.0994 23.7495 17.4956 24.0516C16.3946 24.6024 15.6093 25.1607 14.9799 25.8402C14.2958 26.5787 14 27.2333 14 28.0089C14 28.4417 14.0727 28.7603 14.2642 29.1658C14.9199 30.5549 16.7988 31.8748 19.3818 32.7611C19.6299 32.8462 19.8381 32.9205 19.8444 32.9262C19.8508 32.9318 19.8059 33.2108 19.7446 33.5462C19.5209 34.7718 19.4617 35.3796 19.461 36.459C19.4603 37.5591 19.5342 38.1585 19.759 38.8756C19.9592 39.5143 20.1952 39.9299 20.5824 40.3254C20.7903 40.5379 20.9006 40.621 21.131 40.739C21.5712 40.9644 21.7363 41.0001 22.3371 41C22.7188 40.9999 22.9182 40.9846 23.1149 40.9401C24.4606 40.6361 26.1648 39.5947 27.7202 38.1258L28.017 37.8455L28.2957 38.1041C31.3025 40.8931 34.0588 41.7392 35.4658 40.3049C36.2219 39.5342 36.5854 38.2952 36.5846 36.4914C36.5841 35.4951 36.4985 34.6404 36.286 33.5117C36.226 33.1931 36.1812 32.9292 36.1865 32.9252C36.1918 32.9212 36.4131 32.841 36.6783 32.7471C38.9463 31.9433 40.595 30.8787 41.4492 29.6663C42.0471 28.8175 42.1645 27.8181 41.7706 26.9291C41.591 26.5238 41.3593 26.2003 40.9281 25.7528C40.2947 25.0954 39.6657 24.6504 38.5915 24.0999C37.9457 23.7689 37.3793 23.5273 36.6426 23.2684C36.3799 23.1761 36.1598 23.0962 36.1534 23.0909C36.1471 23.0856 36.1853 22.8507 36.2384 22.5689C36.4688 21.3461 36.5341 20.689 36.5361 19.575C36.5378 18.6556 36.5141 18.3565 36.3927 17.7585C36.248 17.0464 35.9702 16.3706 35.6494 15.9502C34.3103 14.1954 31.5493 14.9022 28.3736 17.8128L27.9862 18.1679L27.5648 17.7822C25.9213 16.2776 24.3019 15.3294 22.9593 15.0856C22.6254 15.025 22.3616 15.0117 22.0261 15.0386ZM22.7703 16.4322C23.7726 16.5957 25.2284 17.4712 26.6784 18.7824L27.0642 19.1312L26.8549 19.3616C26.3063 19.9656 25.6457 20.7884 25.0623 21.5943C24.7401 22.0394 24.6813 22.1052 24.6058 22.1052C24.283 22.1052 22.5684 22.3931 21.69 22.5948C21.3754 22.667 21.1128 22.7208 21.1066 22.7142C21.0828 22.6894 20.906 21.7128 20.8466 21.278C20.5587 19.1699 20.7839 17.4039 21.4292 16.7108C21.7108 16.4082 22.1123 16.3249 22.7703 16.4322ZM34.2362 16.4728C34.6915 16.6904 34.9902 17.2663 35.1635 18.2613C35.2232 18.604 35.2312 18.763 35.2304 19.5912C35.2298 20.3788 35.2184 20.6191 35.1604 21.0672C35.0842 21.6557 34.9096 22.6589 34.8767 22.6969C34.8653 22.7101 34.6045 22.6631 34.2972 22.5924C33.5852 22.4286 32.626 22.2588 31.8752 22.1635L31.2873 22.0889L31.0523 21.7646C30.5268 21.0395 29.9795 20.3436 29.4735 19.7569C29.3212 19.5804 29.136 19.365 29.062 19.2784L28.9273 19.1208L29.0996 18.9566C30.3206 17.793 31.6388 16.9064 32.6846 16.5456C33.0902 16.4056 33.333 16.3651 33.7074 16.3748C34.004 16.3825 34.0745 16.3955 34.2362 16.4728ZM28.4514 20.6211C28.7023 20.9111 29.044 21.3234 29.2108 21.5375L29.5141 21.9268H27.9974C26.6588 21.9268 26.4837 21.921 26.5059 21.8781C26.5783 21.738 27.94 20.094 27.9836 20.094C27.9901 20.094 28.2006 20.3312 28.4514 20.6211ZM29.8344 23.3374C30.1338 23.3563 30.4223 23.379 30.4755 23.3878C30.5617 23.4022 30.6159 23.4731 30.9769 24.044C31.4092 24.7274 31.8011 25.3966 32.1688 26.0788C32.4632 26.625 33.1008 27.9388 33.1008 27.9992C33.1008 28.0682 32.5907 29.1352 32.22 29.8416C31.8245 30.5951 31.3684 31.3845 30.9149 32.1003L30.5732 32.6398L30.3049 32.6605C28.8237 32.7753 26.5608 32.7714 25.6036 32.6525L25.4325 32.6313L25.0675 32.0636C24.6887 31.4744 24.0053 30.2985 23.6818 29.6794C23.4004 29.141 22.8971 28.0808 22.8971 28.0266C22.8971 27.9602 23.5535 26.6032 23.8706 26.0139C24.3041 25.2084 24.8699 24.2466 25.2377 23.6897C25.4114 23.4268 25.4313 23.4079 25.5522 23.3906C25.6791 23.3724 26.5613 23.3145 27.0501 23.2923C27.4819 23.2726 29.2672 23.3016 29.8344 23.3374ZM23.7059 23.6092C23.7059 23.6158 23.5805 23.8334 23.4272 24.0927C23.0653 24.7049 22.7488 25.2806 22.4445 25.8798L22.1996 26.3621L22.1434 26.2242C21.9355 25.7137 21.4145 24.0944 21.4472 24.0603C21.4726 24.0339 22.2421 23.8638 22.866 23.7467C23.696 23.591 23.7059 23.5893 23.7059 23.6092ZM32.8365 23.6927C33.614 23.8329 34.4843 24.0235 34.5209 24.0617C34.5551 24.0974 34.047 25.719 33.8497 26.2033L33.7957 26.336L33.6462 26.0452C33.3364 25.4424 32.8901 24.6361 32.5838 24.1257C32.4094 23.8351 32.2759 23.5973 32.2871 23.5973C32.2983 23.5974 32.5455 23.6403 32.8365 23.6927ZM37.121 24.9015C38.2469 25.3654 39.3094 26.0168 39.9337 26.6259C40.2633 26.9475 40.4442 27.1917 40.5908 27.5132C40.6917 27.7346 40.7058 27.7955 40.7058 28.0089C40.7058 28.2223 40.6917 28.2831 40.5908 28.5046C40.1112 29.5564 38.6119 30.5882 36.3565 31.4185C36.1197 31.5057 35.9003 31.5771 35.8691 31.5771C35.8302 31.5771 35.8052 31.5437 35.7901 31.4716C35.7068 31.0737 35.1231 29.3887 34.7662 28.5157L34.5579 28.006L34.8231 27.3343C35.192 26.4002 35.6332 25.1076 35.7744 24.5479L35.8087 24.4117L36.2591 24.5718C36.5069 24.6599 36.8947 24.8082 37.121 24.9015ZM20.4382 25.3165C20.7136 26.1785 20.9787 26.9106 21.2779 27.6344L21.4381 28.0222L21.2215 28.5589C20.856 29.4646 20.5455 30.3494 20.3138 31.1453C20.2421 31.3917 20.1802 31.5971 20.1763 31.6017C20.1724 31.6064 19.9886 31.5456 19.7677 31.4666C18.0456 30.8508 16.8288 30.1595 15.9969 29.3244C15.4466 28.7719 15.2121 28.2595 15.3043 27.8111C15.5237 26.7443 17.1924 25.4998 19.5685 24.631C19.8508 24.5278 20.1002 24.4464 20.1227 24.4501C20.1468 24.4541 20.2763 24.8097 20.4382 25.3165ZM27.4545 25.3303C26.8437 25.4777 26.2859 25.8401 25.932 26.3196C25.5094 26.8923 25.3212 27.5771 25.3896 28.2932C25.5007 29.4576 26.2952 30.3984 27.3985 30.6723C27.6268 30.729 27.7421 30.738 28.0923 30.7266C28.4639 30.7145 28.5463 30.7008 28.8078 30.6081C29.6568 30.307 30.2774 29.6294 30.5261 28.732C30.5845 28.521 30.596 28.4014 30.5955 28.0089C30.5948 27.4481 30.555 27.265 30.331 26.7925C30.0067 26.108 29.4164 25.5927 28.7132 25.3801C28.4142 25.2898 27.7342 25.2628 27.4545 25.3303ZM34.2848 31.0605C34.4378 31.5346 34.5629 31.9311 34.5629 31.9417C34.5629 31.9952 32.3451 32.4542 32.3023 32.4096C32.2951 32.4022 32.4349 32.1498 32.6128 31.8487C32.9432 31.2895 33.4669 30.3254 33.6758 29.8919L33.7923 29.6502L33.8995 29.9243C33.9585 30.0751 34.1319 30.5864 34.2848 31.0605ZM22.4158 30.1065C22.696 30.6586 23.029 31.2592 23.4001 31.8817C23.5692 32.1652 23.7017 32.4032 23.6947 32.4105C23.6684 32.438 22.3357 32.1842 21.6531 32.0218C21.54 31.9949 21.4789 31.9631 21.4724 31.9277C21.4568 31.8435 22.1556 29.6957 22.1986 29.6957C22.2034 29.6957 22.3012 29.8805 22.4158 30.1065ZM21.7372 33.4416C22.363 33.5838 23.34 33.7575 24.017 33.847C24.2993 33.8843 24.574 33.9219 24.6275 33.9306C24.7101 33.9441 24.7783 34.0203 25.0835 34.4404C25.5848 35.1303 26.0241 35.6847 26.5905 36.342L27.0767 36.9062L26.9389 37.0323C25.9137 37.9709 25.0878 38.5961 24.297 39.032C23.1481 39.6652 22.1587 39.8292 21.6214 39.4755C20.8558 38.9716 20.5548 37.0271 20.8782 34.6749C20.937 34.2475 21.0782 33.4287 21.1094 33.3346C21.1173 33.3108 21.1478 33.2996 21.1782 33.3094C21.2082 33.3191 21.4598 33.3786 21.7372 33.4416ZM34.9639 33.6288C35.1861 34.7321 35.2601 35.4444 35.2594 36.4752C35.2589 37.1732 35.2483 37.3663 35.1916 37.7118C35.0348 38.6663 34.7301 39.2883 34.3107 39.5099C33.8046 39.7773 32.9102 39.6217 31.8875 39.0885C31.0401 38.6466 30.247 38.074 29.314 37.2304L28.9337 36.8866L29.1429 36.6562C29.6897 36.0542 30.3522 35.2293 30.9302 34.4309L31.2947 33.9273L31.7856 33.8683C32.4568 33.7877 33.6289 33.5802 34.2673 33.4291C34.5582 33.3602 34.8189 33.3022 34.8466 33.3001C34.886 33.2971 34.9115 33.3683 34.9639 33.6288ZM29.4992 34.1234C29.4297 34.2474 28.8181 35.0081 28.3954 35.4961L28.0213 35.928L27.898 35.8042C27.6693 35.5747 26.7232 34.4349 26.5029 34.1234C26.4876 34.1019 26.9916 34.091 27.9986 34.091C29.0024 34.091 29.5112 34.102 29.4992 34.1234Z" fill="white" fill-opacity="0.8"/>
</svg>
