<svg width="56" height="56" viewBox="0 0 56 56" fill="none" xmlns="http://www.w3.org/2000/svg">
<rect width="56" height="56" rx="11" fill="white" fill-opacity="0.2"/>
<path d="M41.8514 30.0784C40.5577 30.0858 39.4375 30.3994 38.498 30.8665C38.1511 30.1733 37.8041 29.5676 37.7464 29.1153C37.6814 28.59 37.6019 28.2689 37.6814 27.6414C37.7608 27.0139 38.1221 26.1237 38.1221 26.0508C38.1148 25.9851 38.0426 25.664 37.2982 25.6567C36.5539 25.6494 35.9106 25.8027 35.8383 25.9997C35.7661 26.1967 35.6215 26.6491 35.5276 27.116C35.3975 27.8019 34.0388 30.2316 33.2655 31.5085C33.0125 31.0123 32.7957 30.5745 32.7523 30.2242C32.6873 29.699 32.6077 29.3779 32.6873 28.7504C32.7668 28.1229 33.1282 27.2328 33.1282 27.1598C33.1209 27.0941 33.0487 26.7731 32.3043 26.7658C31.5598 26.7585 30.9167 26.9117 30.8444 27.1087C30.7722 27.3057 30.6927 27.7727 30.5337 28.2251C30.3818 28.6775 28.575 32.7343 28.1053 33.7923C27.8668 34.3322 27.6572 34.7627 27.5054 35.0546C27.3536 35.3464 27.4982 35.0764 27.4837 35.1056C27.3536 35.3537 27.2814 35.4923 27.2814 35.4923V35.4997C27.1802 35.6821 27.0718 35.8572 27.0211 35.8572C26.985 35.8572 26.9127 35.3683 27.0356 34.6971C27.303 33.2888 27.9534 31.0927 27.9463 31.0124C27.9463 30.9759 28.069 30.5891 27.527 30.3922C26.9994 30.1952 26.8116 30.5235 26.7681 30.5235C26.7248 30.5235 26.6887 30.6403 26.6887 30.6403C26.6887 30.6403 27.2741 28.1669 25.5684 28.1669C24.4988 28.1669 23.0245 29.3416 22.2945 30.4142C21.832 30.6695 20.8491 31.2094 19.8084 31.7859C19.4109 32.0048 18.9989 32.2383 18.6086 32.4499L18.5292 32.3622C16.4622 30.1368 12.6391 28.5607 12.7981 25.5692C12.8559 24.482 13.2317 21.6145 20.141 18.1414C25.7998 15.2958 30.3313 16.0765 31.119 17.8131C32.2392 20.2939 28.6979 24.9052 22.815 25.5692C20.5746 25.8246 19.3965 24.949 19.1002 24.6207C18.7895 24.2777 18.7461 24.2631 18.6305 24.3288C18.4426 24.4309 18.5582 24.7374 18.6305 24.9198C18.8039 25.3795 19.5266 26.1967 20.7553 26.6053C21.832 26.9628 24.4628 27.1598 27.6428 25.9194C31.2058 24.5258 33.9883 20.6587 33.1716 17.4264C32.3405 14.1357 26.9345 13.0558 21.8249 14.8872C18.7822 15.9817 15.4866 17.689 13.1161 19.929C10.2974 22.5849 9.84936 24.9052 10.0373 25.8683C10.695 29.305 15.3854 31.545 17.2645 33.2013C17.1705 33.2523 17.0838 33.3033 17.0043 33.3472C16.0647 33.8141 12.4873 35.7039 11.5911 37.7031C10.5793 39.965 11.7501 41.5922 12.5307 41.8111C14.9445 42.4896 17.4162 41.2711 18.7533 39.2646C20.083 37.2581 19.9241 34.6533 19.3098 33.4639L19.288 33.4202L20.0252 32.9824C20.5022 32.6978 20.972 32.4351 21.3839 32.2089C21.1527 32.8437 20.9864 33.5952 20.8997 34.6897C20.7986 35.9739 21.3189 37.6374 22.0055 38.2941C22.309 38.5786 22.6704 38.586 22.8944 38.586C23.6894 38.586 24.0508 37.9219 24.4483 37.1267C24.9397 36.1562 25.3734 35.0326 25.3734 35.0326C25.3734 35.0326 24.8313 38.0752 26.3129 38.0752C26.8549 38.0752 27.397 37.3675 27.6427 37.0026V37.0099C27.6427 37.0099 27.6572 36.988 27.6861 36.937C27.7164 36.8917 27.7453 36.8455 27.7728 36.7984V36.7838C27.9896 36.4044 28.4738 35.5361 29.1966 34.0987C30.1288 32.2454 31.025 29.9252 31.025 29.9252C31.025 29.9252 31.1118 30.4943 31.3792 31.4282C31.5381 31.9828 31.885 32.5884 32.1524 33.1794C31.9356 33.4858 31.8055 33.661 31.8055 33.661L31.8127 33.6683C31.6393 33.9018 31.4441 34.1499 31.2419 34.398C30.5047 35.2881 29.623 36.3024 29.5073 36.5943C29.37 36.9371 29.3989 37.1925 29.6663 37.3969C29.8615 37.5428 30.2084 37.5719 30.577 37.5428C31.2419 37.4989 31.7044 37.3312 31.9357 37.229C32.297 37.0976 32.709 36.9006 33.1065 36.6088C33.8292 36.0689 34.27 35.3028 34.2267 34.2813C34.205 33.7195 34.0243 33.1649 33.8003 32.6396C33.8653 32.5447 33.9304 32.4498 33.9954 32.3477C35.1373 30.6622 36.019 28.809 36.019 28.809C36.019 28.809 36.1058 29.3781 36.3732 30.312C36.5104 30.7863 36.7851 31.3044 37.0308 31.8152C35.9612 32.698 35.2891 33.7195 35.0578 34.3908C34.6314 35.6312 34.9639 36.193 35.5926 36.3244C35.8744 36.3827 36.2792 36.2514 36.5827 36.1201C36.9585 35.996 37.4138 35.7843 37.8331 35.4707C38.5558 34.9307 39.2496 34.1792 39.2134 33.165C39.1918 32.698 39.0689 32.2384 38.9027 31.8006C39.8133 31.4212 40.9913 31.2023 42.4874 31.3847C45.7035 31.7641 46.3395 33.7925 46.2167 34.6389C46.0938 35.4853 45.4217 35.9522 45.1976 36.0982C44.9735 36.2368 44.9012 36.2879 44.9229 36.39C44.9518 36.5433 45.053 36.536 45.2482 36.5068C45.5156 36.463 46.9393 35.8137 46.9971 34.2523C47.0839 32.2455 45.1976 30.0566 41.8514 30.0784ZM17.0476 38.5204C15.9852 39.6951 14.4892 40.1402 13.8532 39.7608C13.1666 39.3595 13.434 37.6302 14.7422 36.3825C15.5372 35.6237 16.5707 34.9232 17.25 34.4927C17.4018 34.3979 17.633 34.2593 17.9077 34.0914C17.951 34.0623 17.98 34.0476 17.98 34.0476C18.0305 34.0185 18.0884 33.982 18.1462 33.9455C18.6304 35.7258 18.1679 37.2873 17.0476 38.5204ZM24.8169 33.1867C24.4483 34.0987 23.6678 36.4409 23.198 36.3095C22.7932 36.2001 22.5475 34.4271 23.1184 32.6759C23.4075 31.793 24.0218 30.7424 24.3832 30.3337C24.9686 29.677 25.6046 29.4581 25.7636 29.7281C25.9515 30.0784 25.0481 32.6175 24.8169 33.1867ZM31.2274 36.2804C31.0684 36.3607 30.9239 36.419 30.8588 36.3753C30.8082 36.3461 30.9238 36.2367 30.9238 36.2367C30.9238 36.2367 31.726 35.3684 32.044 34.9671C32.2247 34.7337 32.4415 34.4637 32.6728 34.1572V34.2447C32.6728 35.2953 31.6755 35.9958 31.2274 36.2804ZM36.1707 35.1421C36.0551 35.0546 36.0696 34.7846 36.4598 33.9382C36.6117 33.6026 36.9585 33.0407 37.5583 32.5081C37.6306 32.727 37.6741 32.9385 37.6668 33.1356C37.6596 34.449 36.7345 34.9378 36.1707 35.1421Z" fill="white" fill-opacity="0.8"/>
</svg>
