<svg width="56" height="56" viewBox="0 0 56 56" fill="none" xmlns="http://www.w3.org/2000/svg">
<rect width="56" height="56" rx="11" fill="white" fill-opacity="0.2"/>
<path fill-rule="evenodd" clip-rule="evenodd" d="M20.4453 12.7822C16.027 12.7822 12.4453 16.364 12.4453 20.7822V35.8933C12.4453 40.3116 16.027 43.8933 20.4453 43.8933H35.5564C39.9747 43.8933 43.5564 40.3116 43.5564 35.8933V20.7822C43.5564 16.3639 39.9747 12.7822 35.5564 12.7822H20.4453ZM19.0156 29.3599V28.0559L19.0396 28.0639V26.7519L24.6396 26.7279C27.7196 26.7279 30.2556 26.7359 30.2556 26.7599C30.2876 26.7759 30.2876 27.3599 30.2876 28.0799V29.3599H26.1276V41.1999H23.1756V29.3599H19.0156ZM39.7116 27.8639C39.1516 27.2799 38.5276 26.9119 37.7116 26.7199L37.7276 26.7039C37.1756 26.5599 35.8556 26.5119 35.2956 26.6239C33.5676 26.9439 32.3596 28.0639 32.0156 29.6639C31.9036 30.1199 31.9436 31.2559 32.0636 31.7199C32.2236 32.2559 32.5676 32.9039 32.9436 33.3199C33.5996 34.0079 34.3036 34.4559 35.9596 35.1599C37.3996 35.7999 37.9116 36.0879 38.1676 36.4399C38.3516 36.7199 38.4076 36.8879 38.4076 37.2559C38.4076 37.6559 38.2796 37.9439 37.9836 38.2159C37.2956 38.8399 35.9036 38.9119 34.8636 38.3759C34.5196 38.1839 33.9276 37.6239 33.6636 37.2079L33.4556 36.9279L32.5516 37.4559L31.3516 38.1519L31.0476 38.3439C31.0156 38.3999 31.5836 39.2559 31.8796 39.5759C32.6316 40.3999 33.8556 41.0399 35.1356 41.2799C35.7356 41.3839 37.0156 41.3999 37.5756 41.3039C39.3596 41.0079 40.6076 40.1039 41.1196 38.7679C41.5756 37.5439 41.4236 35.9119 40.7436 34.8719C40.1436 33.9439 39.1516 33.2959 36.8636 32.3119C35.6236 31.7679 35.2236 31.5039 35.0076 31.0639C34.9116 30.8559 34.8636 30.7119 34.8636 30.4559C34.8636 29.6159 35.5036 29.1119 36.4636 29.1759C37.1276 29.2239 37.5516 29.4799 37.9676 30.0719C38.0956 30.2799 38.2236 30.4159 38.2556 30.3919C39.0956 29.8719 40.4796 28.9359 40.4796 28.8879C40.4476 28.7439 40.0076 28.1839 39.7116 27.8639Z" fill="white" fill-opacity="0.8"/>
</svg>
